<svg width="11" height="18" viewBox="0 0 11 18" fill="none" xmlns="http://www.w3.org/2000/svg">
<path fill-rule="evenodd" clip-rule="evenodd" d="M4.06802 2.06802C4.91193 1.22411 6.05653 0.75 7.25 0.75H9.5C9.91421 0.75 10.25 1.08579 10.25 1.5V4.5C10.25 4.91421 9.91421 5.25 9.5 5.25H7.25V6.75H9.5C9.73095 6.75 9.94902 6.8564 10.0912 7.03844C10.2333 7.22048 10.2836 7.45785 10.2276 7.6819L9.47761 10.6819C9.39414 11.0158 9.09415 11.25 8.75 11.25H7.25V16.5C7.25 16.9142 6.91421 17.25 6.5 17.25H3.5C3.08579 17.25 2.75 16.9142 2.75 16.5V11.25H1.25C0.835786 11.25 0.5 10.9142 0.5 10.5V7.5C0.5 7.08579 0.835786 6.75 1.25 6.75H2.75V5.25C2.75 4.05653 3.22411 2.91193 4.06802 2.06802ZM7.25 2.25C6.45435 2.25 5.69129 2.56607 5.12868 3.12868C4.56607 3.69129 4.25 4.45435 4.25 5.25V7.5C4.25 7.91421 3.91421 8.25 3.5 8.25H2V9.75H3.5C3.91421 9.75 4.25 10.0858 4.25 10.5V15.75H5.75V10.5C5.75 10.0858 6.08579 9.75 6.5 9.75H8.16442L8.53942 8.25H6.5C6.08579 8.25 5.75 7.91421 5.75 7.5V5.25C5.75 4.85217 5.90804 4.47064 6.18934 4.18934C6.47064 3.90804 6.85217 3.75 7.25 3.75H8.75V2.25H7.25Z" fill="#333333"/>
</svg>
