<svg width="120" height="32" viewBox="0 0 120 32" fill="none" xmlns="http://www.w3.org/2000/svg">
<mask id="path-1-inside-1_1599_2810" fill="white">
<path fill-rule="evenodd" clip-rule="evenodd" d="M0 0.947704C0 0.424275 0.416747 0 0.930889 0L18.5331 0C19.0473 0 19.464 0.424275 19.464 0.947704L19.464 5.77238C19.464 6.29581 19.0473 6.72008 18.5331 6.72008L10.1551 6.72008L10.1551 10.3386L16.3329 10.3386C16.847 10.3386 17.2638 10.7629 17.2638 11.2863L17.2638 16.111C17.2638 16.6344 16.847 17.0587 16.3329 17.0587H10.1551L10.1551 24.7265C10.1551 25.2499 9.7384 25.6742 9.22426 25.6742H0.930889C0.416747 25.6742 0 25.2499 0 24.7265L0 0.947704ZM0.930889 0.861549C0.884123 0.861549 0.846262 0.900094 0.846262 0.947704L0.846262 24.7265C0.846262 24.7741 0.884123 24.8126 0.930889 24.8126H9.22426C9.27102 24.8126 9.30889 24.7741 9.30889 24.7265L9.30889 16.6279C9.30889 16.39 9.49832 16.1971 9.73202 16.1971H16.3329C16.3796 16.1971 16.4175 16.1586 16.4175 16.111L16.4175 11.2863C16.4175 11.2387 16.3796 11.2001 16.3329 11.2001L9.73202 11.2001C9.49832 11.2001 9.30889 11.0073 9.30889 10.7694L9.30889 6.28931C9.30889 6.05139 9.49832 5.85853 9.73202 5.85853L18.5331 5.85853C18.5799 5.85853 18.6178 5.81999 18.6178 5.77238L18.6178 0.947704C18.6178 0.900094 18.5799 0.861549 18.5331 0.861549L0.930889 0.861549Z"/>
<path fill-rule="evenodd" clip-rule="evenodd" d="M100.536 0.947704C100.536 0.424559 100.952 0 101.467 0L119.069 0C119.584 0 120 0.424559 120 0.947704V5.77238C120 6.29552 119.584 6.72008 119.069 6.72008L110.691 6.72008V9.47704H116.869C117.384 9.47704 117.8 9.9016 117.8 10.4247V15.2494C117.8 15.7726 117.384 16.1971 116.869 16.1971H110.691V18.9541H119.069C119.584 18.9541 120 19.3786 120 19.9018L120 24.7265C120 25.2496 119.584 25.6742 119.069 25.6742H101.467C100.952 25.6742 100.536 25.2496 100.536 24.7265L100.536 0.947704ZM101.467 0.861549C101.42 0.861549 101.382 0.89982 101.382 0.947704L101.382 24.7265C101.382 24.7744 101.42 24.8126 101.467 24.8126H119.069C119.116 24.8126 119.154 24.7744 119.154 24.7265L119.154 19.9018C119.154 19.8539 119.116 19.8156 119.069 19.8156H110.268C110.034 19.8156 109.845 19.6228 109.845 19.3849V15.7663C109.845 15.5284 110.034 15.3356 110.268 15.3356H116.869C116.916 15.3356 116.953 15.2973 116.953 15.2494V10.4247C116.953 10.3769 116.916 10.3386 116.869 10.3386H110.268C110.034 10.3386 109.845 10.1457 109.845 9.90781V6.28931C109.845 6.05139 110.034 5.85853 110.268 5.85853L119.069 5.85853C119.116 5.85853 119.154 5.82026 119.154 5.77238V0.947704C119.154 0.89982 119.116 0.861549 119.069 0.861549L101.467 0.861549Z"/>
<path fill-rule="evenodd" clip-rule="evenodd" d="M35.4998 25.6742H25.6646C24.9523 25.6742 24.5039 24.893 24.8536 24.2611L37.7217 1.01822C38.0779 0.375129 38.9874 0.375129 39.3436 1.01827L52.2117 24.2611C52.5614 24.8929 52.1131 25.6742 51.4008 25.6742H41.5097L38.9471 30.3029C38.7529 30.6537 38.2567 30.6537 38.0624 30.3029L35.4998 25.6742ZM38.4589 1.44137C38.4913 1.38283 38.5739 1.38281 38.6064 1.44131L51.4745 24.6842C51.5063 24.7417 51.4654 24.8126 51.4008 24.8126H41.9866L43.3248 22.3956C43.5157 22.051 43.2711 21.6249 42.8825 21.6249H34.1269C33.7385 21.6249 33.4939 22.051 33.6847 22.3956L35.0228 24.8126H25.6646C25.5998 24.8126 25.5591 24.7416 25.5908 24.6841L38.4589 1.44137Z"/>
<path fill-rule="evenodd" clip-rule="evenodd" d="M61.1001 0.947704C61.1001 0.424275 61.5169 0 62.031 0L70.5495 0C70.8732 0 71.1709 0.17079 71.3405 0.44859L71.341 0.449453L76.5867 9.08856L81.8325 0.449453L81.833 0.44859C82.0026 0.170785 82.3003 0 82.624 0L91.1425 0C91.6574 0 92.0733 0.424559 92.0733 0.947704L92.0733 24.7265C92.0733 25.2496 91.6574 25.6742 91.1425 25.6742H82.8491C82.3342 25.6742 81.9182 25.2496 81.9182 24.7265L81.9182 17.2824L77.3785 24.7582C77.0152 25.358 76.1583 25.358 75.795 24.7582L71.2553 17.2824L71.2553 24.7265C71.2553 25.2496 70.8393 25.6742 70.3244 25.6742H62.031C61.5169 25.6742 61.1001 25.2499 61.1001 24.7265L61.1001 0.947704ZM62.031 0.861549C61.9843 0.861549 61.9464 0.900094 61.9464 0.947704L61.9464 24.7265C61.9464 24.7741 61.9843 24.8126 62.031 24.8126H70.3244C70.3714 24.8126 70.409 24.7744 70.409 24.7265L70.409 15.7663C70.409 15.5738 70.5346 15.4046 70.7165 15.352C70.8984 15.2993 71.0926 15.376 71.1921 15.5398L76.5151 24.3056L76.5153 24.306C76.548 24.36 76.6255 24.36 76.6582 24.306L76.6584 24.3056L81.9814 15.5398C82.0809 15.376 82.275 15.2993 82.457 15.352C82.6389 15.4046 82.7645 15.5738 82.7645 15.7663L82.7645 24.7265C82.7645 24.7744 82.8021 24.8126 82.8491 24.8126H91.1425C91.1895 24.8126 91.2271 24.7744 91.2271 24.7265L91.2271 0.947704C91.2271 0.89982 91.1895 0.861549 91.1425 0.861549L82.624 0.861549C82.5957 0.861549 82.5686 0.876052 82.5519 0.903049L82.5518 0.903343L76.9467 10.1343C76.8695 10.2613 76.7334 10.3386 76.5867 10.3386C76.4401 10.3386 76.3039 10.2613 76.2268 10.1343L70.6217 0.903343L70.6216 0.903133C70.605 0.876083 70.5778 0.861549 70.5495 0.861549L62.031 0.861549Z"/>
</mask>
<path fill-rule="evenodd" clip-rule="evenodd" d="M0 0.947704C0 0.424275 0.416747 0 0.930889 0L18.5331 0C19.0473 0 19.464 0.424275 19.464 0.947704L19.464 5.77238C19.464 6.29581 19.0473 6.72008 18.5331 6.72008L10.1551 6.72008L10.1551 10.3386L16.3329 10.3386C16.847 10.3386 17.2638 10.7629 17.2638 11.2863L17.2638 16.111C17.2638 16.6344 16.847 17.0587 16.3329 17.0587H10.1551L10.1551 24.7265C10.1551 25.2499 9.7384 25.6742 9.22426 25.6742H0.930889C0.416747 25.6742 0 25.2499 0 24.7265L0 0.947704ZM0.930889 0.861549C0.884123 0.861549 0.846262 0.900094 0.846262 0.947704L0.846262 24.7265C0.846262 24.7741 0.884123 24.8126 0.930889 24.8126H9.22426C9.27102 24.8126 9.30889 24.7741 9.30889 24.7265L9.30889 16.6279C9.30889 16.39 9.49832 16.1971 9.73202 16.1971H16.3329C16.3796 16.1971 16.4175 16.1586 16.4175 16.111L16.4175 11.2863C16.4175 11.2387 16.3796 11.2001 16.3329 11.2001L9.73202 11.2001C9.49832 11.2001 9.30889 11.0073 9.30889 10.7694L9.30889 6.28931C9.30889 6.05139 9.49832 5.85853 9.73202 5.85853L18.5331 5.85853C18.5799 5.85853 18.6178 5.81999 18.6178 5.77238L18.6178 0.947704C18.6178 0.900094 18.5799 0.861549 18.5331 0.861549L0.930889 0.861549Z" stroke="#B83B5E" stroke-width="4" mask="url(#path-1-inside-1_1599_2810)"/>
<path fill-rule="evenodd" clip-rule="evenodd" d="M100.536 0.947704C100.536 0.424559 100.952 0 101.467 0L119.069 0C119.584 0 120 0.424559 120 0.947704V5.77238C120 6.29552 119.584 6.72008 119.069 6.72008L110.691 6.72008V9.47704H116.869C117.384 9.47704 117.8 9.9016 117.8 10.4247V15.2494C117.8 15.7726 117.384 16.1971 116.869 16.1971H110.691V18.9541H119.069C119.584 18.9541 120 19.3786 120 19.9018L120 24.7265C120 25.2496 119.584 25.6742 119.069 25.6742H101.467C100.952 25.6742 100.536 25.2496 100.536 24.7265L100.536 0.947704ZM101.467 0.861549C101.42 0.861549 101.382 0.89982 101.382 0.947704L101.382 24.7265C101.382 24.7744 101.42 24.8126 101.467 24.8126H119.069C119.116 24.8126 119.154 24.7744 119.154 24.7265L119.154 19.9018C119.154 19.8539 119.116 19.8156 119.069 19.8156H110.268C110.034 19.8156 109.845 19.6228 109.845 19.3849V15.7663C109.845 15.5284 110.034 15.3356 110.268 15.3356H116.869C116.916 15.3356 116.953 15.2973 116.953 15.2494V10.4247C116.953 10.3769 116.916 10.3386 116.869 10.3386H110.268C110.034 10.3386 109.845 10.1457 109.845 9.90781V6.28931C109.845 6.05139 110.034 5.85853 110.268 5.85853L119.069 5.85853C119.116 5.85853 119.154 5.82026 119.154 5.77238V0.947704C119.154 0.89982 119.116 0.861549 119.069 0.861549L101.467 0.861549Z" stroke="#B83B5E" stroke-width="4" mask="url(#path-1-inside-1_1599_2810)"/>
<path fill-rule="evenodd" clip-rule="evenodd" d="M35.4998 25.6742H25.6646C24.9523 25.6742 24.5039 24.893 24.8536 24.2611L37.7217 1.01822C38.0779 0.375129 38.9874 0.375129 39.3436 1.01827L52.2117 24.2611C52.5614 24.8929 52.1131 25.6742 51.4008 25.6742H41.5097L38.9471 30.3029C38.7529 30.6537 38.2567 30.6537 38.0624 30.3029L35.4998 25.6742ZM38.4589 1.44137C38.4913 1.38283 38.5739 1.38281 38.6064 1.44131L51.4745 24.6842C51.5063 24.7417 51.4654 24.8126 51.4008 24.8126H41.9866L43.3248 22.3956C43.5157 22.051 43.2711 21.6249 42.8825 21.6249H34.1269C33.7385 21.6249 33.4939 22.051 33.6847 22.3956L35.0228 24.8126H25.6646C25.5998 24.8126 25.5591 24.7416 25.5908 24.6841L38.4589 1.44137Z" stroke="#B83B5E" stroke-width="4" mask="url(#path-1-inside-1_1599_2810)"/>
<path fill-rule="evenodd" clip-rule="evenodd" d="M61.1001 0.947704C61.1001 0.424275 61.5169 0 62.031 0L70.5495 0C70.8732 0 71.1709 0.17079 71.3405 0.44859L71.341 0.449453L76.5867 9.08856L81.8325 0.449453L81.833 0.44859C82.0026 0.170785 82.3003 0 82.624 0L91.1425 0C91.6574 0 92.0733 0.424559 92.0733 0.947704L92.0733 24.7265C92.0733 25.2496 91.6574 25.6742 91.1425 25.6742H82.8491C82.3342 25.6742 81.9182 25.2496 81.9182 24.7265L81.9182 17.2824L77.3785 24.7582C77.0152 25.358 76.1583 25.358 75.795 24.7582L71.2553 17.2824L71.2553 24.7265C71.2553 25.2496 70.8393 25.6742 70.3244 25.6742H62.031C61.5169 25.6742 61.1001 25.2499 61.1001 24.7265L61.1001 0.947704ZM62.031 0.861549C61.9843 0.861549 61.9464 0.900094 61.9464 0.947704L61.9464 24.7265C61.9464 24.7741 61.9843 24.8126 62.031 24.8126H70.3244C70.3714 24.8126 70.409 24.7744 70.409 24.7265L70.409 15.7663C70.409 15.5738 70.5346 15.4046 70.7165 15.352C70.8984 15.2993 71.0926 15.376 71.1921 15.5398L76.5151 24.3056L76.5153 24.306C76.548 24.36 76.6255 24.36 76.6582 24.306L76.6584 24.3056L81.9814 15.5398C82.0809 15.376 82.275 15.2993 82.457 15.352C82.6389 15.4046 82.7645 15.5738 82.7645 15.7663L82.7645 24.7265C82.7645 24.7744 82.8021 24.8126 82.8491 24.8126H91.1425C91.1895 24.8126 91.2271 24.7744 91.2271 24.7265L91.2271 0.947704C91.2271 0.89982 91.1895 0.861549 91.1425 0.861549L82.624 0.861549C82.5957 0.861549 82.5686 0.876052 82.5519 0.903049L82.5518 0.903343L76.9467 10.1343C76.8695 10.2613 76.7334 10.3386 76.5867 10.3386C76.4401 10.3386 76.3039 10.2613 76.2268 10.1343L70.6217 0.903343L70.6216 0.903133C70.605 0.876083 70.5778 0.861549 70.5495 0.861549L62.031 0.861549Z" stroke="#B83B5E" stroke-width="4" mask="url(#path-1-inside-1_1599_2810)"/>
<path d="M44.082 22.0304L38.9215 31.3694C38.6926 31.7837 38.1076 31.7837 37.8786 31.3694L32.7181 22.0304C32.4932 21.6234 32.7815 21.1201 33.2394 21.1201H43.5607C44.0187 21.1201 44.307 21.6234 44.082 22.0304Z" fill="white"/>
</svg>
