<svg width="18" height="16" viewBox="0 0 18 16" fill="none" xmlns="http://www.w3.org/2000/svg">
<path d="M6.22502 15.4249C4.27502 15.4249 2.25002 14.8999 0.450021 13.8499C0.150021 13.6999 2.07573e-05 13.3249 0.0750208 13.0249C0.150021 12.7249 0.450021 12.4999 0.750021 12.4999C2.02502 12.5749 3.30002 12.2749 4.42502 11.7499C1.65002 10.0249 0.900021 7.6249 0.825021 5.7499C0.750021 3.5749 1.50002 1.7749 1.57502 1.6999C1.65002 1.4749 1.87502 1.2499 2.17502 1.2499C2.47502 1.2499 2.70002 1.3249 2.85002 1.5499C4.12502 3.3499 6.07502 4.4749 8.25002 4.6249C8.25002 3.4249 8.77502 2.2999 9.67502 1.4749C11.25 0.124902 13.575 0.124902 15.15 1.4749C15.75 1.2499 16.35 0.949902 16.875 0.574902C17.1 0.424902 17.475 0.424902 17.7 0.574902C17.925 0.724902 18.075 1.0999 18 1.3999C17.775 2.4499 17.25 3.4249 16.5 4.2499C16.5 4.3999 16.5 4.4749 16.5 4.6249C16.5 8.7499 14.7 12.1999 11.475 13.9999C9.90002 14.9749 8.10002 15.4249 6.22502 15.4249ZM3.75002 13.6249C6.22502 14.2249 8.70002 13.9249 10.8 12.7249C13.5 11.1499 15.075 8.1499 15.075 4.6249C15.075 4.4749 15.075 4.3249 15 4.1749C14.925 3.9499 15 3.6499 15.225 3.4999C15.375 3.3499 15.525 3.1249 15.675 2.9749C15.525 3.0499 15.3 3.1249 15.15 3.1249C14.85 3.1999 14.55 3.1249 14.4 2.8999C13.425 1.8499 11.775 1.6999 10.725 2.6749C10.05 3.1249 9.75002 3.8749 9.75002 4.6249V5.3749C9.75002 5.7499 9.45002 6.1249 9.00002 6.1249C6.52502 6.1999 4.20002 5.2249 2.55002 3.4999C2.10002 5.4499 1.95002 9.1249 6.30002 10.9999C6.52502 11.1499 6.75002 11.3749 6.75002 11.6749C6.75002 11.9749 6.67502 12.1999 6.45002 12.3499C5.55002 12.9499 4.65002 13.3999 3.75002 13.6249Z" fill="#333333"/>
</svg>
